# xmcd
# 
# Track frame offsets:
#     150
#     34110
#     63547
#     84410
#     97112
#     114932
#     123952
#     141717
#     164627
#     200605
#     223710
# 
# Disc length: 3553
# 
# Revision: 3
# Processed by: cddbd v1.5.2PL0 Copyright (c) Steve Scherf et al.
# Submitted via: fre:ac v1.0.31
# 
DISCID=a70ddf0b
DTITLE=Babyface - Babyface MTV Unplugged NYC 1997
DYEAR=1997
DGENRE=R&B
TTITLE0=Change The World (with Eric Clapton)
TTITLE1=Talk To Me (with Eric Clapton)
TTITLE2=Whip Appeal
TTITLE3=Breathe Again (with Shanice Wilson)
TTITLE4=Exhale (Shoop Shoop) (with Beverly Crowder)
TTITLE5=I'll Make Love To You (Medley)
TTITLE6=End Of The Road (Medley)
TTITLE7=I Care About You (with K-Ci and JoJo, Melvin and Kevon Edmonds)
TTITLE8=The Day (That You Gave Me A Son)
TTITLE9=Gone Too Soon (with Stevie Wonder)
TTITLE10=How Come, How Long (with Stevie Wonder)
EXTD=
EXTT0=
EXTT1=
EXTT2=
EXTT3=
EXTT4=
EXTT5=
EXTT6=
EXTT7=
EXTT8=
EXTT9=
EXTT10=
PLAYORDER=
